# xmcd
#
# Track frame offsets:
#	150
#	30966
#	45711
#	56225
#	64269
#	75509
#	90635
#
# Disc length: 4249 seconds
#
# Revision: 0
# Processed by: cddbd v1.5.2PL0 Copyright (c) Steve Scherf et al.
# Submitted via: dBpowerAMP V4.0
#
DISCID=51109707
DTITLE=XVhnsfhHHHHH - ý
DYEAR=2006
DGENRE=Country
TTITLE0=DATA
TTITLE1=DATA
TTITLE2=DATA
TTITLE3=DATA
TTITLE4=DATA
TTITLE5=DATA
TTITLE6=DATA
EXTD=
EXTT0=
EXTT1=
EXTT2=
EXTT3=
EXTT4=
EXTT5=
EXTT6=
PLAYORDER=
